REM DIRINDEX 1\2,1\3,1\4
REM DIRNAME cjc151,folder01,folder02,folder03
TITLE ""
FILE "174 174_TOEFL_3900.mp3" MP3
  TRACK 01 AUDIO
    TITLE "2:cjc151_7588"
    INDEX 01 00:00:00
  TRACK 02 AUDIO
    TITLE "0:"
    INDEX 01 00:01:46
  TRACK 03 AUDIO
    TITLE "3:cjc151_7589"
    INDEX 01 00:03:15
  TRACK 04 AUDIO
    TITLE "0:"
    INDEX 01 00:06:53
  TRACK 05 AUDIO
    TITLE "2:cjc151_7590"
    INDEX 01 00:08:32
  TRACK 06 AUDIO
    TITLE "0:"
    INDEX 01 00:10:53
  TRACK 07 AUDIO
    TITLE "3:cjc151_7591"
    INDEX 01 00:12:32
  TRACK 08 AUDIO
    TITLE "0:"
    INDEX 01 00:16:16
  TRACK 09 AUDIO
    TITLE "2:cjc151_7592"
    INDEX 01 00:17:70
  TRACK 10 AUDIO
    TITLE "0:"
    INDEX 01 00:19:20
  TRACK 11 AUDIO
    TITLE "3:cjc151_7593"
    INDEX 01 00:21:06
  TRACK 12 AUDIO
    TITLE "0:"
    INDEX 01 00:24:51
  TRACK 13 AUDIO
    TITLE "2:cjc151_7594"
    INDEX 01 00:26:30
  TRACK 14 AUDIO
    TITLE "0:"
    INDEX 01 00:27:59
  TRACK 15 AUDIO
    TITLE "3:cjc151_7595"
    INDEX 01 00:29:38
  TRACK 16 AUDIO
    TITLE "0:"
    INDEX 01 00:33:60
  TRACK 17 AUDIO
    TITLE "2:cjc151_7596"
    INDEX 01 00:35:37
  TRACK 18 AUDIO
    TITLE "0:"
    INDEX 01 00:36:58
  TRACK 19 AUDIO
    TITLE "3:cjc151_7597"
    INDEX 01 00:38:37
  TRACK 20 AUDIO
    TITLE "0:"
    INDEX 01 00:42:21
  TRACK 21 AUDIO
    TITLE "2:cjc151_7598"
    INDEX 01 00:44:05
  TRACK 22 AUDIO
    TITLE "0:"
    INDEX 01 00:45:35
  TRACK 23 AUDIO
    TITLE "3:cjc151_7599"
    INDEX 01 00:47:17
  TRACK 24 AUDIO
    TITLE "0:"
    INDEX 01 00:50:25
  TRACK 25 AUDIO
    TITLE "2:cjc151_7600"
    INDEX 01 00:52:04
  TRACK 26 AUDIO
    TITLE "0:"
    INDEX 01 00:53:23
  TRACK 27 AUDIO
    TITLE "3:cjc151_7601"
    INDEX 01 00:55:03
  TRACK 28 AUDIO
    TITLE "0:"
    INDEX 01 00:58:73
  TRACK 29 AUDIO
    TITLE "2:cjc151_7602"
    INDEX 01 01:00:53
  TRACK 30 AUDIO
    TITLE "0:"
    INDEX 01 01:02:14
  TRACK 31 AUDIO
    TITLE "3:cjc151_7603"
    INDEX 01 01:03:71
  TRACK 32 AUDIO
    TITLE "0:"
    INDEX 01 01:07:41
  TRACK 33 AUDIO
    TITLE "2:cjc151_7604"
    INDEX 01 01:09:20
  TRACK 34 AUDIO
    TITLE "0:"
    INDEX 01 01:10:59
  TRACK 35 AUDIO
    TITLE "3:cjc151_7605"
    INDEX 01 01:12:36
  TRACK 36 AUDIO
    TITLE "0:"
    INDEX 01 01:17:43
  TRACK 37 AUDIO
    TITLE "2:cjc151_7606"
    INDEX 01 01:19:21
  TRACK 38 AUDIO
    TITLE "0:"
    INDEX 01 01:20:55
  TRACK 39 AUDIO
    TITLE "3:cjc151_7607"
    INDEX 01 01:22:44
  TRACK 40 AUDIO
    TITLE "0:"
    INDEX 01 01:27:03
  TRACK 41 AUDIO
    TITLE "2:cjc151_7608"
    INDEX 01 01:28:57
  TRACK 42 AUDIO
    TITLE "0:"
    INDEX 01 01:30:01
  TRACK 43 AUDIO
    TITLE "3:cjc151_7609"
    INDEX 01 01:31:53
  TRACK 44 AUDIO
    TITLE "0:"
    INDEX 01 01:34:44
  TRACK 45 AUDIO
    TITLE "2:cjc151_7610"
    INDEX 01 01:36:21
  TRACK 46 AUDIO
    TITLE "0:"
    INDEX 01 01:37:64
  TRACK 47 AUDIO
    TITLE "3:cjc151_7611"
    INDEX 01 01:39:43
  TRACK 48 AUDIO
    TITLE "0:"
    INDEX 01 01:43:45
  TRACK 49 AUDIO
    TITLE "2:cjc151_7612"
    INDEX 01 01:45:22
  TRACK 50 AUDIO
    TITLE "0:"
    INDEX 01 01:46:53
  TRACK 51 AUDIO
    TITLE "3:cjc151_7613"
    INDEX 01 01:48:44
  TRACK 52 AUDIO
    TITLE "0:"
    INDEX 01 01:53:23
  TRACK 53 AUDIO
    TITLE "2:cjc151_7614"
    INDEX 01 01:55:03
  TRACK 54 AUDIO
    TITLE "0:"
    INDEX 01 01:56:67
  TRACK 55 AUDIO
    TITLE "3:cjc151_7615"
    INDEX 01 01:58:48
  TRACK 56 AUDIO
    TITLE "0:"
    INDEX 01 02:03:61
  TRACK 57 AUDIO
    TITLE "2:cjc151_7616"
    INDEX 01 02:05:40
  TRACK 58 AUDIO
    TITLE "0:"
    INDEX 01 02:07:31
  TRACK 59 AUDIO
    TITLE "3:cjc151_7617"
    INDEX 01 02:09:11
  TRACK 60 AUDIO
    TITLE "0:"
    INDEX 01 02:13:26
  TRACK 61 AUDIO
    TITLE "2:cjc151_7618"
    INDEX 01 02:15:05
  TRACK 62 AUDIO
    TITLE "0:"
    INDEX 01 02:16:54
  TRACK 63 AUDIO
    TITLE "3:cjc151_7619"
    INDEX 01 02:18:31
  TRACK 64 AUDIO
    TITLE "0:"
    INDEX 01 02:23:11
  TRACK 65 AUDIO
    TITLE "2:cjc151_7620"
    INDEX 01 02:24:65
  TRACK 66 AUDIO
    TITLE "0:"
    INDEX 01 02:26:09
  TRACK 67 AUDIO
    TITLE "3:cjc151_7621"
    INDEX 01 02:27:62
  TRACK 68 AUDIO
    TITLE "0:"
    INDEX 01 02:32:53
  TRACK 69 AUDIO
    TITLE "2:cjc151_7622"
    INDEX 01 02:34:38
  TRACK 70 AUDIO
    TITLE "0:"
    INDEX 01 02:36:06
  TRACK 71 AUDIO
    TITLE "3:cjc151_7623"
    INDEX 01 02:37:60
  TRACK 72 AUDIO
    TITLE "0:"
    INDEX 01 02:42:10
  TRACK 73 AUDIO
    TITLE "2:cjc151_7624"
    INDEX 01 02:43:64
  TRACK 74 AUDIO
    TITLE "0:"
    INDEX 01 02:46:04
  TRACK 75 AUDIO
    TITLE "3:cjc151_7625"
    INDEX 01 02:47:58
  TRACK 76 AUDIO
    TITLE "0:"
    INDEX 01 02:52:03
  TRACK 77 AUDIO
    TITLE "2:cjc151_7626"
    INDEX 01 02:53:55
  TRACK 78 AUDIO
    TITLE "0:"
    INDEX 01 02:55:07
  TRACK 79 AUDIO
    TITLE "3:cjc151_7627"
    INDEX 01 02:56:59
  TRACK 80 AUDIO
    TITLE "0:"
    INDEX 01 03:00:37
  TRACK 81 AUDIO
    TITLE "2:cjc151_7628"
    INDEX 01 03:02:19
  TRACK 82 AUDIO
    TITLE "0:"
    INDEX 01 03:03:50
  TRACK 83 AUDIO
    TITLE "3:cjc151_7629"
    INDEX 01 03:05:23
  TRACK 84 AUDIO
    TITLE "0:"
    INDEX 01 03:08:43
  TRACK 85 AUDIO
    TITLE "2:cjc151_7630"
    INDEX 01 03:10:22
  TRACK 86 AUDIO
    TITLE "0:"
    INDEX 01 03:11:43
  TRACK 87 AUDIO
    TITLE "3:cjc151_7631"
    INDEX 01 03:13:22
  TRACK 88 AUDIO
    TITLE "0:"
    INDEX 01 03:17:56
